# xmcd CD database file
#
# Track frame offsets:
#	150
#	32542
#	51900
#	90817
#	127155
#	160540
#	186362
#	202792
#	220312
#	238285
#	254657
#	271150
#	287630
#	307667
#
# Disc length: 4595 seconds
#
# Revision: 1
# Processed by: cddbd v1.5.2PL0 Copyright (c) Steve Scherf et al.
# Submitted via: CDex 1.50beta8
#
DISCID=bf11f10e
DTITLE=Various Artist - Blues for saxophone club
DYEAR=1900
DGENRE=Jazz
TTITLE0=Monteiro, Young and Holt - Falling in Love with love
TTITLE1=Monteiro, Young and Holt - Myh Blues
TTITLE2=Monteiro, Young and Holt - My Foolish Heart
TTITLE3=Monteiro, Young and Holt - Surrey with a fringe on top
TTITLE4=Monteiro, Young and Holt - What a wonderful world
TTITLE5=Monteiro, Young and Holt - Blues for saxophone club
TTITLE6=Charles Mingus - Take the 'A' train
TTITLE7=Charles Mingus - Prayer for Passive Resistance
TTITLE8=Charles Mingus - Eclipse
TTITLE9=Charles Mingus - Mingus Fingus No.2
TTITLE10=Charles Mingus - Weird Nightmare
TTITLE11=Charles Mingus - Do nothing' Till You Hear From Me
TTITLE12=Charles Mingus - Bemoanable Lady
TTITLE13=Charles Mingus - Half-Mast Inhibition
EXTD=
EXTT0=
EXTT1=
EXTT2=
EXTT3=
EXTT4=
EXTT5=
EXTT6=
EXTT7=
EXTT8=
EXTT9=
EXTT10=
EXTT11=
EXTT12=
EXTT13=
PLAYORDER=
